# xmcd
#
# Track frame offsets:
#	150
#	20602
#	39326
#	58618
#	76419
#	94420
#	114552
#	132419
#	154732
#	173056
#	193523
#	212039
#	233055
#	248405
#	270720
#
# Disc length: 3855 seconds
#
# Revision: 3
# Processed by: cddbd v1.5.1PL0 Copyright (c) Steve Scherf et al.
# Submitted via: audiograbber 1.83.01
#
DISCID=c50f0d0f
DTITLE=Laura Pausini - In assenza di te
DYEAR=1900
DGENRE=Italian
TTITLE0=In assenza di te
TTITLE1=Ricordami
TTITLE2=Strani amori
TTITLE3=Siamo noi
TTITLE4=Anna dimmi si
TTITLE5=Jenny
TTITLE6=La solitudine
TTITLE7=La voz
TTITLE8=Las cocas que vivi
TTITLE9=La cose che vivi
TTITLE10=Per vivere
TTITLE11=Se fue
TTITLE12=Tra te il mare
TTITLE13=Un dia sin ti
TTITLE14=Vivo per lei
EXTD=
EXTT0=
EXTT1=
EXTT2=
EXTT3=
EXTT4=
EXTT5=
EXTT6=
EXTT7=
EXTT8=
EXTT9=
EXTT10=
EXTT11=
EXTT12=
EXTT13=
EXTT14=
PLAYORDER=
